<?xml version="1.0" encoding="utf-8"?>
<svg version="1.1" id="Layer_1" xmlns="http://www.w3.org/2000/svg" xmlns:xlink="http://www.w3.org/1999/xlink" x="0px" y="0px"
	 viewBox="0 0 1354.1 277.1" style="enable-background:new 0 0 1354.1 277.1;" xml:space="preserve">
<style type="text/css">
	.st0{fill:#ACD29A;}
	.st1{fill:#37A836;}
	.st2{fill:#13692F;}
</style>
<g>
	<g id="_x32_9YurR_00000055671935575302493700000000663910887212293266_">
		<g>
			<path class="st0" d="M4.7,127c60.4-31.6,124.1-58.2,130-127c26.8,9.7,47.9,17.5,66,24.5c11.5,4.5,28.6,11.3,52.7,15.6
				c3.3,0.6,6,1,7.8,1.3c1.1,2.8,2.5,6.8,3.3,11.9c0,0,1.9,14.1-2.4,30.5c-6.6,25.1-24.5,45.7-49.9,62.9
				c-21.8,14.7-46.3,26.6-69.9,39.4c-3.1,1.7-9.1,2.4-12.1,1C88.6,167.5,47.2,147.4,4.7,127z"/>
			<path class="st1" d="M0.2,169.7c17.1-12.6,17.5-12.7,34.9-4.3c29.9,14.3,59.9,28.4,89.4,43.2c8.1,4.1,13.9,3.7,21.6-0.2
				c28.8-14.4,58.6-27.4,86.8-42.4c14.3-7.6,25-6.9,37.2,3.7c-21.4,10.3-42.4,20.5-63.5,30.6c-20.9,10.1-41.7,20.4-62.8,30.1
				c-4,1.8-10.9,3-14.4,1.3C86.2,211.3,43.3,190.4,0.2,169.7z"/>
			<path class="st2" d="M0,214.5c17.8-12.6,17.8-12.6,35.3-4.2c30.2,14.5,60.6,28.8,90.6,43.7c6.6,3.2,11.3,3.5,18.1,0.1
				c29.6-14.7,59.6-28.8,89.4-43.1c18.4-8.9,18.4-8.9,36.8,3.5c-32,15.4-63.5,30.7-95.2,45.8c-13.1,6.3-26.5,16.9-39.8,16.9
				s-26.7-10.6-39.8-16.9C63.6,245.2,32,229.9,0,214.5z"/>
		</g>
	</g>
</g>
<g>
	<path d="M377.8,101.7c3.2-1.3,6.9-2,11-2c7.2,0,13.6,2,19.3,5.9c5.6,3.9,9.8,9.4,12.6,16.4l25.3-11.4c-2.8-7.9-7-14.6-12.5-20.3
		c-5.6-5.6-12.1-10-19.8-13c-7.6-3.1-15.9-4.6-24.9-4.6c-10.2,0-19.2,1.9-27,5.6s-13.9,9-18.3,15.7c-4.3,6.7-6.5,14.4-6.5,23.3
		c0,10,3,18.6,9,25.8s15,12.7,26.9,16.6l29.3,9.6c4.5,1.5,7.9,3.4,10,5.9s3.2,5.5,3.2,8.9c0,3.2-0.9,6-2.6,8.3s-4.1,4.2-7.2,5.5
		s-6.8,2-11,2c-8,0-15.4-2.3-22-7s-11.8-11.1-15.6-19.3L331.6,185c2.9,8.6,7.4,16,13.3,22.3c6,6.3,13,11.1,21.3,14.5
		c8.2,3.4,17,5.1,26.4,5.1c10.6,0,19.8-1.9,27.8-5.7s14.2-9.1,18.8-15.9c4.5-6.8,6.8-14.5,6.8-23.2c0-10-3-18.5-8.9-25.5
		c-6-7-14.9-12.4-27-16.3l-28.7-9.2c-4.6-1.5-8-3.5-10.2-6.1c-2.3-2.6-3.4-5.7-3.4-9.1c0-3.2,0.9-6.1,2.6-8.5
		C372.1,105,374.6,103.1,377.8,101.7z"/>
	<path d="M548.8,128.2c-4.6-4.9-10.3-8.8-17-11.5s-14.4-4.1-23.1-4.1c-10.4,0-19.8,2.5-28.1,7.4c-8.3,5-14.9,11.7-19.8,20.3
		s-7.3,18.3-7.3,29.3c0,10.6,2.3,20.2,7,28.9s11.3,15.6,19.9,20.8s18.7,7.7,30.3,7.7c7.5,0,14.4-1.1,20.7-3.3s11.7-5.3,16.4-9.3
		c4.6-4,8-8.7,10.1-14L533.8,189c-2.1,3.7-5.1,6.7-8.9,8.8c-3.8,2.1-8.4,3.2-13.7,3.2c-5.9,0-10.9-1.3-15.1-3.9
		c-4.1-2.6-7.2-6.3-9.2-10.9c-1-2.4-1.7-5-2.1-7.8h76.7c0.5-1.5,0.9-3.2,1.1-5.3c0.2-2.1,0.3-4.2,0.3-6.3c0-7.6-1.2-14.7-3.6-21.2
		C557,138.9,553.5,133.2,548.8,128.2z M495.4,140.5c3.7-2.5,8.2-3.8,13.4-3.8c5.3,0,9.9,1.3,13.5,3.9c3.7,2.6,6.3,6.2,7.7,10.6
		c0.5,1.6,0.8,3.2,1,4.9h-45.5c0.3-1.6,0.8-3,1.3-4.4C488.8,146.8,491.6,143,495.4,140.5z"/>
	<path d="M615.2,143.5c4.1-2.5,8.7-3.8,13.9-3.8c5.9,0,11.1,1.6,15.6,4.8s7.7,7.6,9.5,13l26.1-11.2c-2.1-6.8-5.7-12.7-10.6-17.8
		c-5-5-10.9-8.9-17.9-11.7c-7-2.8-14.5-4.2-22.7-4.2c-11,0-20.9,2.5-29.7,7.4c-8.8,5-15.8,11.7-20.9,20.4
		c-5.1,8.6-7.6,18.4-7.6,29.2s2.6,20.6,7.7,29.3c5.1,8.7,12.1,15.6,20.9,20.6c8.8,5,18.6,7.5,29.6,7.5c8.3,0,15.9-1.4,22.9-4.3
		c7-2.9,12.9-6.9,17.9-11.9c4.9-5.1,8.4-10.8,10.4-17.3l-26-11.5c-1.9,5.5-5,9.8-9.4,13s-9.6,4.8-15.7,4.8c-5.2,0-9.9-1.3-13.9-3.8
		c-4.1-2.5-7.3-6.1-9.6-10.6s-3.5-9.8-3.5-15.7s1.2-11.1,3.5-15.7C607.9,149.6,611.2,146,615.2,143.5z"/>
	<path d="M729.9,121.1c-4.2,2.5-7.5,6.7-9.9,12.6v-16.4h-28.1V227H722v-59c0-8.2,2.3-14.5,6.8-19s10.5-6.7,17.9-6.7h9.4v-26.1h-6.4
		C742.1,116.2,735.5,117.8,729.9,121.1z"/>
	<path d="M854,128.2c-4.6-4.9-10.3-8.8-17-11.5s-14.4-4.1-23.1-4.1c-10.4,0-19.8,2.5-28.1,7.4c-8.3,5-14.9,11.7-19.8,20.3
		c-4.9,8.6-7.3,18.3-7.3,29.3c0,10.6,2.3,20.2,7,28.9s11.3,15.6,19.9,20.8c8.6,5.2,18.7,7.7,30.3,7.7c7.5,0,14.4-1.1,20.7-3.3
		s11.7-5.3,16.4-9.3c4.6-4,8-8.7,10.1-14L839,189c-2.1,3.7-5.1,6.7-8.9,8.8c-3.8,2.1-8.4,3.2-13.7,3.2c-5.9,0-10.9-1.3-15.1-3.9
		c-4.1-2.6-7.2-6.3-9.2-10.9c-1-2.4-1.7-5-2.1-7.8h76.7c0.5-1.5,0.9-3.2,1.1-5.3c0.2-2.1,0.3-4.2,0.3-6.3c0-7.6-1.2-14.7-3.6-21.2
		C862.2,138.9,858.7,133.2,854,128.2z M800.6,140.5c3.7-2.5,8.2-3.8,13.4-3.8c5.3,0,9.9,1.3,13.5,3.9c3.7,2.6,6.3,6.2,7.7,10.6
		c0.5,1.6,0.8,3.2,1,4.9h-45.5c0.3-1.6,0.8-3,1.3-4.4C794,146.8,796.8,143,800.6,140.5z"/>
	<path d="M920.9,91.3h-30.1v8c0,5.6-1.5,9.8-4.5,12.6c-3,2.8-7.3,4.2-12.9,4.2h-1v26.1h18.5v43.9c0,12.8,3.6,22.8,10.9,30
		c7.3,7.2,17.6,10.7,30.8,10.7c2.3,0,4.7-0.1,7.2-0.4c2.5-0.3,4.8-0.5,6.8-0.8v-25.5c-1.3,0.1-2.6,0.3-3.8,0.4
		c-1.2,0.1-2.3,0.2-3.2,0.2c-4.1,0-7.6-0.6-10.4-1.8c-2.8-1.2-4.9-3-6.2-5.5s-2-5.6-2-9.3v-41.9h25.7v-26.1H921L920.9,91.3
		L920.9,91.3z"/>
	<path d="M1042.5,82.9c-8-3.6-17.1-5.4-27.4-5.4h-57.4V227h31.1v-54.2h26.3c10.2,0,19.2-1.8,27.2-5.5s14.2-9.1,18.9-16.2
		c4.6-7.1,6.9-15.7,6.9-25.9c0-10.4-2.3-19.2-6.8-26.3C1056.7,91.8,1050.4,86.5,1042.5,82.9z M1034.3,135.8
		c-1.8,3.1-4.3,5.5-7.5,7.2c-3.2,1.7-7,2.6-11.4,2.6h-26.5v-41.1h26.5c4.4,0,8.2,0.9,11.4,2.6c3.2,1.7,5.7,4.1,7.5,7.2
		s2.7,6.7,2.7,10.8C1037,129.2,1036.1,132.8,1034.3,135.8z"/>
	<path d="M1147.6,181.4c0,4.1-0.8,7.8-2.5,10.9c-1.7,3.1-4,5.6-7,7.3s-6.5,2.6-10.5,2.6c-3.9,0-7.4-0.9-10.4-2.6
		c-3.1-1.7-5.5-4.2-7.1-7.3c-1.7-3.1-2.5-6.8-2.5-10.9v-64h-30.1v66.4c0,9.1,1.6,17.1,4.8,23.9c3.2,6.8,7.9,12.1,14.1,16
		c6.2,3.8,13.7,5.7,22.6,5.7c7.6,0,14.3-1.6,20-4.7c4.6-2.6,8.2-6.3,10.7-11.1V227h28.1V117.4h-30.1L1147.6,181.4L1147.6,181.4z"/>
	<path d="M1297.5,143.2c-5-8.6-11.6-15.5-20.1-20.6c-8.4-5.1-17.9-7.6-28.3-7.6c-8,0-15.2,1.5-21.4,4.5c-3.9,1.9-7.3,4.2-10.1,7.1
		V75h-30.1v152h28.1v-10.4c3.4,3.7,7.6,6.6,12.5,8.7c6.4,2.7,13.3,4.1,20.8,4.1c10.7,0,20.3-2.5,28.7-7.6c8.4-5.1,15.1-12,20-20.7
		s7.3-18.3,7.3-28.9C1305,161.5,1302.5,151.8,1297.5,143.2z M1270.3,187.8c-2.4,4.5-5.8,8.1-10,10.6c-4.3,2.5-9.2,3.8-14.8,3.8
		c-5.4,0-10.1-1.3-14.3-3.8c-4.2-2.5-7.5-6.1-9.8-10.6s-3.5-9.8-3.5-15.7s1.2-11.1,3.5-15.7c2.3-4.5,5.6-8.1,9.8-10.6
		c4.2-2.5,9-3.8,14.3-3.8c5.6,0,10.6,1.3,14.8,3.9c4.3,2.6,7.6,6.2,10,10.6c2.4,4.5,3.6,9.7,3.6,15.6
		C1273.9,178.1,1272.7,183.3,1270.3,187.8z"/>
</g>
</svg>
